<svg width="51" height="6" viewBox="0 0 51 6" fill="none" xmlns="http://www.w3.org/2000/svg">
<g clip-path="url(#clip0_19_26860)">
<path d="M17.2321 0C17.1066 0.183673 16.9748 0.361781 16.8493 0.556586L15.8076 2.02041C15.8076 2.02041 15.7699 2.04824 15.8076 2.0705C15.8452 2.09277 15.8453 2.0705 15.8704 2.0705H17.3764L13.7053 5.96661C13.6945 5.94344 13.6945 5.91741 13.7053 5.89425C14.1237 4.99258 14.5525 4.09091 14.9918 3.18924C14.9918 3.12802 14.9918 3.12802 14.9416 3.12802H13.6865C13.6865 3.12802 13.6865 3.08349 13.6865 3.06122C14.2388 2.07607 14.7973 1.08534 15.3558 0.100186L15.3495 0H17.2321Z" fill="#FF730B"/>
<path d="M0 5.92201V0.294922H4.14175V1.36913H1.41196V2.74947H3.92211V3.78472H1.41196V5.92201H0Z" fill="black"/>
<path d="M5.20242 0H6.56418V5.92208H5.18359L5.20242 0Z" fill="black"/>
<path d="M7.72476 4.64744C7.72476 3.84596 8.3523 3.32277 9.49441 3.32277H10.6679V2.95542C10.6679 2.59364 10.3792 2.39883 9.92742 2.39883C9.47559 2.39883 9.24967 2.58807 9.19947 2.83854H7.90674C7.95067 2.12611 8.49663 1.45264 9.95251 1.45264C11.1009 1.45264 12.0297 1.85338 12.0297 2.98882V5.91646H10.7307V5.35987H10.6679C10.5373 5.56139 10.3444 5.72557 10.112 5.83307C9.87963 5.94056 9.61744 5.98687 9.35636 5.96655C9.14887 5.98626 8.93903 5.96669 8.74071 5.90913C8.54238 5.85157 8.36008 5.75734 8.20586 5.63266C8.05165 5.50798 7.92902 5.35568 7.84608 5.18585C7.76315 5.01601 7.7218 4.8325 7.72476 4.64744ZM10.6679 4.4749V4.0352H9.83329C9.33754 4.0352 9.08652 4.2467 9.08652 4.54726C9.08652 4.84781 9.44421 5.10384 9.82074 5.10384C9.92515 5.11301 10.0306 5.10321 10.1306 5.07502C10.2306 5.04684 10.323 5.00086 10.4023 4.93992C10.4816 4.87897 10.546 4.80433 10.5917 4.72055C10.6374 4.63677 10.6633 4.54561 10.6679 4.45264V4.4749Z" fill="black"/>
<path d="M18.387 0H19.7425V2.28757H19.8115C19.9161 2.02569 20.1159 1.80208 20.3794 1.65195C20.643 1.50181 20.9554 1.43367 21.2674 1.45826C21.496 1.44669 21.7248 1.48002 21.9372 1.55587C22.1497 1.63173 22.3406 1.74825 22.4965 1.8971C22.6523 2.04595 22.7692 2.22348 22.8388 2.41701C22.9084 2.61054 22.9289 2.81531 22.899 3.0167V5.92208H21.5247V3.33952C21.5247 2.71614 21.1356 2.51021 20.6838 2.51021C20.548 2.50983 20.4136 2.53536 20.2899 2.58506C20.1662 2.63476 20.056 2.70746 19.9667 2.79825C19.8774 2.88904 19.8112 2.99579 19.7725 3.11126C19.7338 3.22674 19.7236 3.34824 19.7425 3.46754V5.90538H18.3682L18.387 0Z" fill="black"/>
<path d="M29.4629 0.294922C31.5087 0.294922 32.3119 1.40809 32.3119 3.07785C32.3119 4.74761 31.5087 5.91644 29.4629 5.91644H27.0469V0.294922H29.4629ZM28.4651 4.85893H29.2495C30.241 4.85893 30.8623 4.48602 30.8623 3.11681C30.8623 2.14835 30.5109 1.358 29.2495 1.358H28.4651V4.85893Z" fill="black"/>
<path d="M33.2531 3.93507V3.50093C33.2531 3.23999 33.311 2.98161 33.4236 2.74053C33.5362 2.49946 33.7012 2.28041 33.9093 2.0959C34.1173 1.91138 34.3643 1.76503 34.6361 1.66517C34.9079 1.56531 35.1992 1.51392 35.4934 1.51392C35.7876 1.51392 36.0789 1.56531 36.3507 1.66517C36.6225 1.76503 36.8695 1.91138 37.0775 2.0959C37.2856 2.28041 37.4506 2.49946 37.5632 2.74053C37.6758 2.98161 37.7337 3.23999 37.7337 3.50093V3.99072H34.596V4.19109C34.5886 4.30438 34.6085 4.41777 34.6542 4.52375C34.6999 4.62973 34.7705 4.72589 34.8613 4.80587C34.9521 4.88584 35.0609 4.94781 35.1807 4.98768C35.3005 5.02754 35.4285 5.04439 35.5562 5.03711C36.0268 5.03711 36.372 4.84787 36.4159 4.57514H37.671C37.6333 5.13173 37.012 6 35.5436 6C35.2328 6.02352 34.9201 5.98597 34.6276 5.89002C34.335 5.79408 34.07 5.6421 33.8513 5.44492C33.6325 5.24773 33.4655 5.01019 33.3621 4.74922C33.2587 4.48825 33.2215 4.21026 33.2531 3.93507ZM36.3908 3.2616V3.2282C36.4023 3.11828 36.3875 3.00744 36.3474 2.90294C36.3073 2.79843 36.2428 2.7026 36.1581 2.6217C36.0734 2.54081 35.9705 2.47667 35.8559 2.43348C35.7414 2.39029 35.6178 2.36902 35.4934 2.37106C35.3677 2.36751 35.2425 2.38761 35.1262 2.43005C35.0098 2.47248 34.9049 2.53628 34.8184 2.61725C34.7318 2.69821 34.6656 2.79451 34.624 2.89981C34.5825 3.00512 34.5665 3.11704 34.5772 3.2282V3.2616H36.3908Z" fill="black"/>
<path d="M38.6125 4.64744C38.6125 3.84596 39.24 3.32277 40.3821 3.32277H41.5556V2.95542C41.5556 2.59364 41.2669 2.39883 40.8151 2.39883C40.3633 2.39883 40.1374 2.58807 40.0872 2.83854H38.7882C38.8384 2.12611 39.4157 1.45264 40.8402 1.45264C41.9823 1.45264 42.9111 1.85338 42.9111 2.98882V5.91646H41.6184V5.35987H41.5556C41.425 5.56139 41.2321 5.72557 40.9997 5.83307C40.7673 5.94056 40.5051 5.98687 40.244 5.96655C40.0366 5.98626 39.8267 5.96669 39.6284 5.90913C39.4301 5.85157 39.2478 5.75734 39.0936 5.63266C38.9393 5.50798 38.8167 5.35568 38.7338 5.18585C38.6508 5.01601 38.6095 4.8325 38.6125 4.64744ZM41.5556 4.4749V4.0352H40.7147C40.2252 4.0352 39.9742 4.2467 39.9742 4.54726C39.9742 4.84781 40.3256 5.10384 40.7084 5.10384C40.8128 5.11301 40.9183 5.10321 41.0183 5.07502C41.1182 5.04684 41.2107 5.00086 41.29 4.93992C41.3693 4.87897 41.4337 4.80433 41.4794 4.72055C41.5251 4.63677 41.551 4.54561 41.5556 4.45264V4.4749Z" fill="black"/>
<path d="M44.2666 0H45.6472V5.92208H44.2666V0Z" fill="black"/>
<path d="M48.904 1.44165C50.0336 1.44165 50.8431 1.89805 50.8431 2.76076H49.6319C49.597 2.61213 49.4999 2.48074 49.3602 2.39298C49.2205 2.30522 49.0486 2.2676 48.8789 2.28766C48.4333 2.28766 48.1635 2.4769 48.1635 2.74406C48.1635 3.15594 48.9354 3.2116 49.4625 3.30065C50.3787 3.42867 51 3.76818 51 4.5474C51 5.45464 50.203 6.01123 48.8224 6.01123C47.4418 6.01123 46.7578 5.45464 46.7578 4.68099H48.0882C48.1258 4.95928 48.3894 5.15408 48.8914 5.15408C49.3935 5.15408 49.6633 4.95371 49.6633 4.69768C49.6633 4.31364 49.0734 4.27468 48.4459 4.1411C47.5673 3.99082 46.8582 3.67913 46.8582 2.82755C46.8582 1.83683 47.8184 1.44165 48.904 1.44165Z" fill="black"/>
</g>
<defs>
<clipPath id="clip0_19_26860">
<rect width="51" height="6" fill="white"/>
</clipPath>
</defs>
</svg>
