<svg width="17" height="22" viewBox="0 0 17 22" fill="none" xmlns="http://www.w3.org/2000/svg">
<g clip-path="url(#clip0_19_26814)">
<path d="M12.978 4.62341C12.9759 5.53734 12.7074 6.43012 12.2066 7.18895C11.7058 7.94779 10.9951 8.53864 10.1643 8.88686C9.33352 9.23508 8.41989 9.32504 7.53884 9.14539C6.65779 8.96574 5.84885 8.52453 5.21423 7.8775C4.5796 7.23047 4.14777 6.40665 3.97326 5.51011C3.79876 4.61357 3.88942 3.68455 4.23379 2.84039C4.57816 1.99624 5.16079 1.27483 5.90808 0.7673C6.65537 0.259771 7.53378 -0.0111057 8.43236 -0.0111084C9.03023 -0.0111102 9.62225 0.108846 10.1745 0.341889C10.7267 0.574932 11.2283 0.916483 11.6505 1.34698C12.0728 1.77749 12.4074 2.28848 12.6352 2.8507C12.863 3.41292 12.9795 4.01532 12.978 4.62341Z" fill="black"/>
<path d="M8.43254 11.1564C7.32424 11.1564 6.22681 11.3786 5.20301 11.8103C4.17922 12.242 3.24913 12.8748 2.46595 13.6724C1.68278 14.47 1.06186 15.4168 0.638735 16.4586C0.215606 17.5005 -0.00143595 18.617 7.14924e-06 19.7442C7.14924e-06 20.3366 0.231366 20.9047 0.643191 21.3235C1.05502 21.7424 1.61357 21.9777 2.19598 21.9777H14.6911C15.2735 21.9777 15.832 21.7424 16.2439 21.3235C16.6557 20.9047 16.8871 20.3366 16.8871 19.7442C16.8885 18.6151 16.6707 17.4968 16.2462 16.4535C15.8217 15.4102 15.1989 14.4624 14.4134 13.6645C13.6279 12.8666 12.6952 12.2343 11.6688 11.8039C10.6425 11.3735 9.54269 11.1535 8.43254 11.1564Z" fill="black"/>
</g>
<defs>
<clipPath id="clip0_19_26814">
<rect width="16.8651" height="22" fill="white"/>
</clipPath>
</defs>
</svg>
