<svg width="10" height="11" viewBox="0 0 10 11" fill="none" xmlns="http://www.w3.org/2000/svg">
<path d="M9.73859 9.77268L7.75219 7.58774C8.40478 6.63325 8.70569 5.44294 8.59472 4.25491C8.48376 3.06688 7.9691 1.96873 7.15369 1.18012C6.33829 0.391522 5.28228 -0.0293872 4.19688 0.00159671C3.11148 0.0325806 2.07672 0.513171 1.29961 1.34723C0.522492 2.18129 0.0602855 3.30733 0.00549369 4.50009C-0.0492981 5.69285 0.307355 6.8644 1.00408 7.78037C1.7008 8.69635 2.68623 9.28922 3.76326 9.44039C4.8403 9.59155 5.92952 9.28987 6.81304 8.59569L8.81084 10.7932C8.93587 10.9265 9.10341 11.0007 9.27756 10.9997C9.41133 11.0044 9.54318 10.9638 9.65532 10.8834C9.76746 10.8031 9.85451 10.6868 9.90475 10.5504C9.95499 10.414 9.966 10.2639 9.93629 10.1203C9.90658 9.97678 9.83757 9.84671 9.73859 9.74763V9.77268ZM4.31437 8.0385C3.72224 8.0385 3.14341 7.84536 2.65108 7.48352C2.15874 7.12167 1.77504 6.60737 1.54845 6.00564C1.32185 5.40391 1.26253 4.74179 1.37805 4.103C1.49357 3.46421 1.77872 2.87744 2.19742 2.4169C2.61611 1.95635 3.14958 1.64272 3.73033 1.51566C4.31108 1.3886 4.91302 1.45381 5.46008 1.70306C6.00713 1.9523 6.47469 2.37438 6.80366 2.91592C7.13263 3.45746 7.30822 4.09414 7.30822 4.74545C7.30671 5.61831 6.99082 6.45495 6.42969 7.07216C5.86856 7.68937 5.10792 8.03685 4.31437 8.0385Z" fill="black"/>
</svg>
